/* XPM */
static char *_6479_eb66e2908f3dbe88b6ea21291aa87389263f8a0d5daba45a039ecc1728a5f749[] = {
/* columns rows colors chars-per-pixel */
"64 64 207 2 ",
"   c #050101",
".  c #0C0105",
"X  c #0C040A",
"o  c #0D090B",
"O  c #070209",
"+  c #120105",
"@  c #13050B",
"#  c #1A040B",
"$  c #140A0D",
"%  c #1A090E",
"&  c #1D0004",
"*  c #0D0A13",
"=  c #0D0711",
"-  c #130711",
";  c #140B13",
":  c #1B0D14",
">  c #170E19",
",  c #1A0E19",
"<  c #141017",
"1  c #1C1115",
"2  c #161119",
"3  c #1C131C",
"4  c #1D181F",
"5  c #26090D",
"6  c #26090E",
"7  c #230D13",
"8  c #290E12",
"9  c #241216",
"0  c #2B1116",
"q  c #23141C",
"w  c #2B151B",
"e  c #24191D",
"r  c #2D191D",
"t  c #301317",
"y  c #32161B",
"u  c #321A1E",
"i  c #3A1D1F",
"p  c #1E1621",
"a  c #1E1A23",
"s  c #221621",
"d  c #2B1621",
"f  c #241B24",
"g  c #2B1C23",
"h  c #251E29",
"j  c #2A1E29",
"k  c #311622",
"l  c #331D24",
"z  c #3A1E23",
"x  c #331F29",
"c  c #3A1F28",
"v  c #242027",
"b  c #2D2126",
"n  c #26222B",
"m  c #2B222C",
"M  c #352125",
"N  c #3B2126",
"B  c #33242B",
"V  c #3C242A",
"C  c #35292E",
"Z  c #3D2A2E",
"A  c #2C2631",
"S  c #2F2933",
"D  c #3B2631",
"F  c #332B32",
"G  c #3C2B32",
"H  c #3B2F38",
"J  c #312730",
"K  c #3C3236",
"L  c #3E333A",
"P  c #353037",
"I  c #442022",
"U  c #43262A",
"Y  c #44292E",
"T  c #4D2C2B",
"R  c #492A27",
"E  c #512F2D",
"W  c #4F302E",
"Q  c #52312F",
"!  c #422630",
"~  c #442C33",
"^  c #4B2E33",
"/  c #4A2F39",
"(  c #432E39",
")  c #522E30",
"_  c #443135",
"`  c #4C3236",
"'  c #44333A",
"]  c #4C343B",
"[  c #463B3E",
"{  c #4D393D",
"}  c #543334",
"|  c #593636",
" . c #5A3936",
".. c #53353A",
"X. c #59363A",
"o. c #553A3D",
"O. c #5C3B3C",
"+. c #573836",
"@. c #613E3D",
"#. c #5F403D",
"$. c #62403E",
"%. c #433A41",
"&. c #4D3B42",
"*. c #433A45",
"=. c #543D42",
"-. c #5C3D42",
";. c #5A3F48",
":. c #613E41",
">. c #4C444B",
",. c #534045",
"<. c #5D4245",
"1. c #53444A",
"2. c #5C444A",
"3. c #5E484C",
"4. c #574B4F",
"5. c #5B4B52",
"6. c #5C515A",
"7. c #644343",
"8. c #6A4545",
"9. c #674846",
"0. c #6B4846",
"q. c #654549",
"w. c #6B4649",
"e. c #654A4C",
"r. c #6C4B4B",
"t. c #704746",
"y. c #714947",
"u. c #714749",
"i. c #724C4C",
"p. c #794E4F",
"a. c #6E504E",
"s. c #74514F",
"d. c #79524F",
"f. c #644D53",
"g. c #6C4E51",
"h. c #724F51",
"j. c #7B4F51",
"k. c #655155",
"l. c #6D5254",
"z. c #6D545A",
"x. c #6F595A",
"c. c #62565B",
"v. c #745353",
"b. c #7B5554",
"n. c #755957",
"m. c #7C5955",
"M. c #74555A",
"N. c #7A5759",
"B. c #75595C",
"V. c #7C5A5A",
"C. c #7F605E",
"Z. c #6A5E67",
"A. c #755E63",
"S. c #7D5E63",
"D. c #725F6A",
"F. c #6A626A",
"G. c #7D6363",
"H. c #71626A",
"J. c #7C646B",
"K. c #77676B",
"L. c #6F6772",
"P. c #7B6B74",
"I. c #766A72",
"U. c #7D7078",
"Y. c #805656",
"T. c #815B56",
"R. c #815758",
"E. c #835D5C",
"W. c #885E5D",
"Q. c #84605D",
"!. c #8A625E",
"~. c #825E61",
"^. c #8A5F60",
"/. c #846262",
"(. c #8C6462",
"). c #8E6865",
"_. c #846669",
"`. c #8A6668",
"'. c #84696E",
"]. c #8C6A6B",
"[. c #916563",
"{. c #936866",
"}. c #926768",
"|. c #946B69",
" X c #8C706F",
".X c #8E6D70",
"XX c #866E77",
"oX c #926E70",
"OX c #86767C",
"+X c #857A81",
"@X c #8C7D82",
"#X c #8A8186",
"$X c #8C8389",
"%X c #8B8589",
"&X c #938A91",
"*X c #998E96",
"=X c #9D949A",
"-X c #96878A",
";X c #A5959A",
":X c #A48B91",
">X c #A59FA3",
",X c #BEAEB1",
"<X c #B2ACB0",
"1X c #B5A6A9",
"2X c #C7B7BA",
"3X c #CEBEC1",
"4X c #D8C9CC",
/* pixels */
"E././.E.(./././.v.<.o.Y u M M V C b C C F C v v v b b v j j A A A s s x ( H S s O , e d g C _ #.5.H.B.n.B.B.S./.C.v.s.C.d.s.$.d.",
"E./.V.N././.S./.l.7.} i 7 u M V C C C C C C C v v v v f h j h h s h p s h s p > = , 3 - + : v B [ 5.l.k.<.<.l.V.C.v.a.m.m.s.d.y.",
"E.~.V.N.Q.V.m.V.r.e.<.V 8 r r u r b C C P P v e f f f f m m j h s A j s h h p p f f n a 3 e b b B &.&.&.] ` <.l.n.n.n.n.T.d.$.y.",
"V.E.m.v.m.s.r.r.i.r.l.+.Y i u r r r M C C b b v j g j n h j h h h A s h m j p p h h A S f m v e 3 B G ' ] ( { =.f.x.n.C.m.T.y.d.",
"N.V.V.i.i.i.i.7.$.r.n.l.<.o.Y t r e 9 9 9 e e b m b g f s s f j h J h p h A h p h n S S h v a * > j j x j d q d K ,.x.C.C.C.d.s.",
"m.m.V.i.8.i.s.8.9.s.l.a.9.a.#.` Y M 9 9 9 9 1 $ 1 q f e 3 s g j j j j j h h h h n a A A v v v p p f p p h s s p 1 m #.e.a.d.V.E.",
"b.v.v.i.7.7.0.8.7.0.9.9.9.C.n.e.,.<.#.` Y M e 1 7 q g w q q d j g f j J A A A A a p a a a a v v j h p h A j h > . $ v Z ,.a.V.n.",
"h.v.v.u.8.8.0.0.$.7.$.9.#.9.9.a.a.a.e.x.x.a.#._ Y ~ Z l q w q s q 1 e g j j h s a a n A S a a a s h A h h s h p < < 1 q V _ g.B.",
"s.b.b.i.0.8.0.8.$.0.8.$.#.$.@.7.a.s.v.n.C.n.l.e.e.q.2.` ~ Z M M r % 1 9 e q - @ @ : 3 n F J f f n j m m n f n n v a <   $ e ` n.",
"r.i.s.$.$. .8.$.$.0.$. . .$.7.r.0.a.a.a.a.a.a.v.n.l.M.l.e.q.<.,._ M M M u q q 9 q - + $ 3 q , 3 g , > e f a f n A n 4 o . o r 4.",
"8.8.t.@.Q Q  . .| $. . . .$.$.0.0.r.0.a.r.s.v.m.n.v.V.V.B.B.B.l.l.k.a.e.e.2.4.3.=.( x q $ @ X . - @ X : f 3 < 3 a v v v 3 . $ C ",
"7.8.$.| Q |  .Q Q  .@.$.$.$.$.7.0.0.d.d.a.0.r.a.s.v.m.v.V.V.v.B.n.B.C.C.G.J.S.S.A.A.z.2.] ~ l 7 9 e e d C G g 2 < 4 4 4 e @ . e ",
"0.8.8.| Q | | | | O.O.$.8.8.@.@.@.$.0.s.d.$.y.y.s.d.b.i.s.v.m.V.n.v.n.C./._./.S./._.'._.S.z.q.=.` _ M r r e 1 X . $ ; $ ; X . 7 ",
"8.7.$.| |  .O.O.O.7.$.@.8.$.8.8.$.$.$.y.y.y.$.$.y.y.s.y.i.s.V.m.n.n.n.C././.~.S.V.J.'.'.~.'.].J.B.3.{ ~ u q 7 7 9 2 1 2 : - @ $ ",
"@.@.@.| | O.@.$.@.$.@.O.@.@.8.8.$.#.$.0.a.a.y.s.y.y.i.y.0.i.N.i.a.d.s.m.Q.V.v.N.~._.].]..X.X.X_.K.G.C.l.f.q.<.,.&.G b r % @ . + ",
"| | @.| |  . .| $.$.@.@.$.O.@.8.0.$.$.0.$.y.y.y.y.d.y.$.y.0.i.i.y.s.s.m.n.m.E.b.j.V.^.`.^.S.S.S.C. X XG.G.G.M.v.k.,._ ~ 7 @ + # ",
"@.| @.| | | X.O.7.:. .O.@.O.O.:.:.7.7.8.0.8.$.0.@.8.8.$.i.t.t.i.y.i.s.0.i.b.Y.R.Y.b.j.b.m.v.v.N./.|./.C.B././.).C.a.+.` Z 7 @ + ",
"@.@.@.@.| O.:.7.r.8.O.O.9.0.w.7.7.7.$.8.0.0.8.0.i.i.t.u.i.u.h.h.y.0.y.y.Y.~.W.~.R.b.v.Y.i.m./.~.C.m.Q.Q./.(.oX X XG.e.e.e.o.l 7 ",
"@. .@.@.} :.w.v.v.0.@.7.w.h.i.w.7.7.8.8.8.7.8.0.i.h.h.h.N.h.h.N.m.v.v.i.v.E.^.~.b.p.j.R.Y.Y.Y.j.p.u.m.W.W.~.`.(.).(.S.`.S.l...V ",
"@.| | Q } 8.v.N.v.e.$.9.q.i.r.7.@.@.$.$.@.O.| Q } | :.X.:.O.X.h.V.n.B.v.v.i.j.:.j.p.p.Y.p.u.p.Y.Y.Y.R.m.N.j.W.W.{.)./.oX.XS.r.-.",
"#.+.+.} | r.n.n.r.e.7.8.i.r.q.@. .-.:.-.@.7.q.7.-.X.O.^ I U z i } } O.#.:.h.j.w.h.p.p.R.j.j.j.Y.Y.^.W.R.R.b.R.^.R.^.^.`.^.S.h.:.",
"#.} Q W } e.v.v.i.e.0.0.r.8.8.:.O.7.7.q.e.h.v.l.M.B.M.-.;.n.-.t w i y 8 y X.h.S.Y.~.Y.R.R.j.j.h.R.E.R.m.R.R.^.W.W.W.R.~.`.~.N.g.",
"+.Q T W | e.h.v.v.g.v.0.q.7.q.q.r.e.g.B._.S.A.l.M.J.A.q.J.:XXX] ^ ] i 5 6 z ..:.R..Xj.h.h.i.h.E.E.b.i.i.j.b.^.Y.Y.R.Y.W.'.^.^.S.",
"#.Q } +.O.r.g.g.v.l.r.q.<.7.q.q.q.l.M.z.z.z.3.2.4.k.f.2.D.:XOX{ 2.l.,.` / -.) ! =.:.:.:.:.7.r.h.b.h.7.w.v.i.i.8.t.W.W.Y.~.^.`.^.",
"+. .T $.0.v.r.r.v.l.r.9.q.q.e.7.2.=.~ y 8 d w 9 q e d e K 6.,.V _ { ,.l.'.H.} w 6 y c X.:.:.-.q.r.7.:.g.v.j.R.R.d.R.Y.y.d.Y.R.W.",
"T Q T 9.r.s.e.0.B.v.<.-.^ } ^ V l 9 # + + . . + . .   .   2 $ . $ 1 G F.@XOXe._ U z t k / :.-.:.g.q.-.:.w.j.j.R.Y.d.p.Y.Y.d.E.W.",
"R E T $.7.e.r.a.v.$.U i k y 6 6 + + + % : , p s m K K F o     $ . o e [ >.4.,.,.=./ ! U ^ ^ ! ..q.q.:.:.:.j.u.:.t.@.u.p.p.i.b.R.",
" . .E $.9.s.l.a.9.R t w t 8 # # # 9 M ,.1.5.Z.L.OX-X>X%X#.o o o X   o . X 1 B &.5.;.;.&.! w 7 c -.e.g.q.:.w.p.:.@.@.t.Y.t.u.i.b.",
"$. .R $.d.!.v.9.<.y & 6 8 N c ! ' =.c.P.P.P.U.+X&X=X<X%XL . . o     O     X 1 C G D G x x w 0 Z o.2.g.q.-.:.j.:.@.t.u.p.u.t.u.j.",
"#. .R #.s.!.C.v.e.R 8 w i ! ] ;.f.D.XXJ.D.D.U.+X%X&X%X>.1 $ .   o o o . o X X o : 7 k B ( ( G ( Z V ^ ..X.:.u.u.p.i.i.8.j.i.i.u.",
"$.#.R Q $.n.C.n.B.e.+.....! ! / &.5.J.P.L.D.U.@X&X$XF.b . 1 $           O X X X : s B ( &.&.' H y 9 w U ^ :.7.i.v.i.t.7.i.i.u.w.",
"$.$.R Q $.s.a.9.v.v.o...-./ ! k k ! ;.D.D.P.+X@X*X%X>.X . $ . 9 e 1 v 1 o . . @ - : s A H H F C M r y u U -.:.:.w.8.7.7.8.i.8.8.",
"0.$.| Q @.0.q. .9.e...^ -.;...c 0 7 % G 3.H.@X*X=X#X#.$ o   9 I.-X-X;X4.$ o O $ - = > > , > p f C C d y N ` X. ...X.:.:.:.:.:.p.",
"y.8. .} } 7.w.9.9.q.7.X.=.q.:./ c w @ # m 1.P.$X&XL.P . o   #.,X3X4X4Xc.$ O o * - - - - X X ; f g b e q l ! ....X.} :.u.u.:.:.8.",
"m.s.i.@.Q  .q.8.q.8.:.....-.-.! U c 8 $ # q ( Z.#XU.[ + . . _ 1X3X4X>XC . o   ; > > > - = - 3 a f g g g d c / X.-.X.:.:.8.8.:.:.",
"N.m.m.7.E | 8.8.q.:.-...^ -.;.! V ( Y l + + @ V 4.5.Z $ $ . q K.,X2XH.$ O = o * = = s p = - > 4 n g m Z l r z ^ X.-.X.@.:.8.@.t.",
"s.v.m.e.} Q $.8.7.O.r.<./ -.e.^ ! { Z U 8 # # + $ w r % + + . r { k.B O - o - * = * S P 2 O * p b a f J x r y Z ! ..X.} ) @.:.t.",
"s.d.N.s.7. .@.e.q.7.e.7. .-.q.-.X.=.N l y 0 7 # # # M g 9 $ + + @ + . X @ ; 3 o * S *.>.v O < < 3 ; 3 g j g l y z I ) @.I | 7.w.",
"v.d.d.b.s.8.O.$.9.9.7.e.g.q.g.g.<.q./ 8 u N z y r l N w M M u q : : @ . > : X = a 6.Z.Z.P o > < * * 2 f j j l r k I U ) I } :.@.",
"p.b.b.v.v.0.$.#.r.a.r.s.g.g.B.M.e.:.` Y U ` ] Y N N 5 % M ] { { Z l g g d f , q *.F.L.L.>.; o * * * a A B B l d c c U ) E @.@.@.",
"p.R.b.b.j.i.q.8.r.v.v.v.a.a.h.g.q...! } -.:.e.=.U V 0 y Y Y U V ~ ( _ ' [ H B B %.>.&.>.*.3 X * 2 > h m m B B x V U T ) ..-.:.| ",
"E.E.Y.m.b.i.i.r.s.s.v.n.v.v.M.M.:.} ] -.-.-.q.;.o.` ` _ _ Y l y l ~ _ ~ C B j j B f p f A f > > p 4 a f j m B N c U ^ ^  .O.X.| ",
"E.E.Y.b.N.v.v.i.s.s.i.N.B.V.n.h.M.w.:.:.+.` o.o...] =.<.o...} N y l r 7 0 d j g q : - > s s > > p 2 , p g j C C B Y ^ ^ X.X.@.X.",
"W.!.W.E.^.W.E.V.v.r.9.i.v.m.v.g.~.~.M.j.-.} -.-.o.-.q.r.9.<.-.U N M y r l B d q , : , - ; ; - - > > @ , f j D N c Z / ^ ^ X.@.@.",
"^.^.^.R.W.~./.W.V.v.0.8.u.h.h.N.~.~./.V.r.7.e.e.O.q.r.e.e.e.-.^ Y ! V c l y 0 0 k d q : - - - - ; - - q d j G B M ! ^ Y U T X.:.",
"R.R.Y.Y.N.R.E.E./.V.v.i.w.h.N.b.N.V.S.~.V.v.N.v.e.v.h.q.r.g.:.O.` ..^ Y V z d w g c j d d d d d s , q s g B G x z ~ Y Y T ^ } X.",
"W.W.W.R.~.W.E.~.(.V.i.i.i.h.h.h.h.M.M./.(.R.(.R.v.~.h.w.r.h.g.e.q.q.-.` ../ ! c D V x j x j j x B j d d g g x l l ] / ..-.X.} } ",
"W.^.W.W.R.~.(.(.).(.V.v.s.N.h.r.h.N.N.~.~.E.~.E.R.R.N.r.r.h.M.v.n.h.g.q.e.-...] / &.( x q 7 d D D B d q 9 w 9 w V ] ..X...X.X.X.",
"Y.Y.W.W.R.E.!.!.!.T.m.m.E.m.i.8.8.d.V.m.j.b.N.~.W.E.(.~.v.v.i.a.r.V.v.v.l.l.e.;.;.;.;.! k w d x c c c d k d c N U ` ^ ^ } o.<.7.",
"W.R.!.[.W.W.E.E.!.R.b.V./.W.j.u.i.i.u.i.j.N.R.Y.~.E.~.~.V.V.V.r.r.v.v.N.S.N.M.g.g.A.;.-./ ~ ! k k k c c ! c ! ` ] ../ ..X.X.-.q.",
"Y.Y.!.!.W.W.!./.!.!.W.W.)./.m.i.i.8.$.$.i.h.m.b.N.b.V.V.V./.Q.C.N.v.i.N.~.S.B.B.S.~.M.;.;.:.:.;./ / ..] ../ -.-.-.;.-.:.7.-.| 7.",
"!.(.[.[.W.R.E.W.!.(.(.!./.~.E.R.T.m.d.m.b.i.Y.~.R.m.E.N.m.V.Q.Q.Q.T.m.N.~.~.E.B.A._.A.g.:.f.l.A.g.e.g.e.-.=.r.g.g.v.B.g.:.7.7.7.",
"[.[.(.W.W.E.W.W.!.).!.!.W.W.E.E.T.T.d.Q.T.d.d.T.E.m.E.E.T.V.Q.V.m.T.m.T.C.V.V.m.M.~.M.M.M.M.N.S.S.M.M.M.B.g.g.A.M.q.q.g.:.h.h.h.",
"(.(.(.!.W.W.W.W.!.).!.!.W.W.!.R.T.T.T.T.d.d.T.T.v.j.b.E.E.m.V.m.m.T.T.Q.m.E.E.m.R.~.R.M.n.V.~._.S.S.N.V.S.S.N.S.~.q.:.v.h.v.h.h.",
"W.!.(.!.!.(.!.[.!.).).!.!.!.!.!.T.!.!.T.T.d.d.d.b.d.b.b.m.m.m.T.T.d.d.T.R.E.~.R.N.^.~.N.N.V.E.G.V.N.M.M.S.~.~.N.V.h.r.i.h.v.v.i.",
"(.(.W.W.(.W.(.W.[.!.!.!.!.[.!.!.!.!.!.!.!.T.T.T.R.Y.d.T.R.m.m.Q.T.T.d.Q.E.W.^.^.~.~.~.N.N.N.E.E.R.V.N.b.N.N.N.v.h.S.v.g.b.h.i.0.",
"(.[.W.W.W./.[.(.[.).!.[.[.|.[.!.T.!.T.!.[.!.T.!.!.!.T.T.T.T.T.T.T.T.T.!.T.T.T.).C.m.Q.V.m.V.V.Q././.V.m.V.V.V.m.v.b.V.v.m.v.m.v.",
"(.W.(.W.(.^.[.[.).[.[.!.[.|.[.!.!.!.[.[.[.!.T.T.!.!.T.T.T.T.T.T.!.T.Q.).).T.Q.T.C.m.Q.Q.N.m.V.Q././.V.C.C.)./._.E.E./.V.V.n.V.C.",
"(.W.(.(.(.!.}.[.{.{.(.[.[.{.{.[.{.[.[.[.[.!.T.T.!.[.T.T.T.T.T.!.).!.!.!.).T.!.).!.Q./.Q.m.V.E.Q.Q././.C.V.).`././.C.V.E.V.v.m.V.",
"W.W.W.[.(.W.^.[.(.(.!.!.!.{.{.{.{.{.{.{.{.[.[.!.[.[.).!.!.T.!.[.).!.!.!.Q.).Q.)._.Q.)./.V.Q./.V.Q./.C.Q.Q._././.V.v.m.V.V.m.v.N.",
"W.W.(.(.W.W.W.[.[.[.^.^.[.{.{.{.[.!.[.[.[.[.[.[.!.!.[.[.[.T.).[.).).!.).).!.!.).(.Q.(.(.Q.Q./.Q./.Q././.~.`.`./.V.V.Q.Q.m.n.v.m.",
"W.(.(.W.W.W.W.^.[.[.[.[.[.{.[.[.[.T.[.!.!.!.[.[.).[.[.!.[.!.).).!.!.!.!.!.).).!.(.(.(././.Q./././._././.V./././././././.V.m.m.m.",
"E.(.W.W.^.^.^.[.^.[.[.[.[.{.[.{.!.[.[.[.[.[.[.{.{.{.[.!.!.[.!.).).[.!.[.!.).!.).).).).).(.(.(././.(././.~.`.`.`./.Q.V.V.E.V.V.Q.",
"R.(.W.W.^.}.[.[.}.[.{.[.[.{.[.[.[.[.[.{.[.[.[.{.{.{.).[.!.).).).[.[.).!.).!.).!.).).(.).).).(.(.].`./././.`._././.V.Q.Q./.Q.C.Q."
};
